<svg width="138" height="20" viewBox="0 0 138 20" fill="none" xmlns="http://www.w3.org/2000/svg">
<g opacity="0.6">
<path fill-rule="evenodd" clip-rule="evenodd" d="M15.2711 14.8667H13.1495L14.4755 7.13818H16.5973L15.2711 14.8667Z" fill="#005C9C"/>
<path fill-rule="evenodd" clip-rule="evenodd" d="M11.3648 7.13818L9.34195 12.4537L9.10283 11.309L9.10305 11.3095L8.38896 7.83426C8.38896 7.83426 8.30285 7.13818 7.38256 7.13818H4.03902L4 7.26884C4 7.26884 5.02275 7.47061 6.219 8.15263L8.06221 14.8667H10.2727L13.6481 7.13818H11.3648Z" fill="#005C9C"/>
<path fill-rule="evenodd" clip-rule="evenodd" d="M25.7174 12.1328L26.8324 9.24042L27.4595 12.1328H25.7174ZM28.052 14.8667H30L28.3015 7.13818H26.5959C25.8081 7.13818 25.6165 7.71415 25.6165 7.71415L22.4526 14.8667H24.6637L25.1062 13.719H27.8032L28.052 14.8667Z" fill="#005C9C"/>
<path fill-rule="evenodd" clip-rule="evenodd" d="M22.6185 8.99685L22.9211 7.33698C22.9211 7.33698 21.9868 7 21.0129 7C19.9601 7 17.4601 7.43662 17.4601 9.55854C17.4601 11.5554 20.3943 11.5802 20.3943 12.6286C20.3943 13.6769 17.7624 13.4896 16.894 12.8283L16.5784 14.5634C16.5784 14.5634 17.5255 15 18.9733 15C20.4209 15 22.6052 14.2886 22.6052 12.354C22.6052 10.3445 19.6445 10.1575 19.6445 9.28379C19.6445 8.41014 21.7107 8.52239 22.6185 8.99685Z" fill="#005C9C"/>
<path fill-rule="evenodd" clip-rule="evenodd" d="M9.10305 11.3095L8.38896 7.83426C8.38896 7.83426 8.30286 7.13818 7.38256 7.13818H4.03902L4 7.26884C4 7.26884 5.60714 7.58494 7.14889 8.76828C8.62241 9.89953 9.10305 11.3095 9.10305 11.3095Z" fill="#EE9F3F"/>
<rect x="48.2047" y="5.49658" width="6.12245" height="11.0029" fill="#FF5F00"/>
<path fill-rule="evenodd" clip-rule="evenodd" d="M48.5935 10.9991C48.5912 8.85172 49.5767 6.82257 51.266 5.49671C48.3971 3.24211 44.2773 3.57051 41.8019 6.25113C39.3265 8.93175 39.3265 13.0646 41.8019 15.7452C44.2773 18.4258 48.3971 18.7542 51.266 16.4996C49.5772 15.1742 48.5918 13.1459 48.5935 10.9991Z" fill="#EB001B"/>
<path fill-rule="evenodd" clip-rule="evenodd" d="M62.5876 10.9989C62.5876 13.6779 61.0579 16.1217 58.6482 17.2924C56.2386 18.4631 53.372 18.1552 51.266 16.4994C52.9539 15.1728 53.9395 13.1448 53.9395 10.998C53.9395 8.85109 52.9539 6.82306 51.266 5.49649C53.372 3.84073 56.2386 3.53281 58.6482 4.70351C61.0579 5.87421 62.5876 8.31799 62.5876 10.997V10.9989Z" fill="#F79E1B"/>
<path fill-rule="evenodd" clip-rule="evenodd" d="M61.919 15.1218V15.4156H61.8782V15.1218H61.7791V15.061H62.0104V15.1218H61.919ZM62.368 15.061V15.4156L62.3272 15.4182V15.1497L62.2514 15.3802H62.1989L62.1231 15.1497V15.4156H62.0726V15.061H62.1348L62.2164 15.3143L62.298 15.061H62.368Z" fill="#F79E1B"/>
<path fill-rule="evenodd" clip-rule="evenodd" d="M88.3763 16.6175H82.1957V5.51025H88.3763V16.6175Z" fill="#6C6BBD"/>
<path fill-rule="evenodd" clip-rule="evenodd" d="M82.588 11.064C82.588 8.8108 83.643 6.80375 85.2858 5.51033C84.0844 4.56451 82.5683 3.99999 80.9205 3.99999C77.0196 3.99999 73.8574 7.16258 73.8574 11.064C73.8574 14.9653 77.0196 18.1279 80.9205 18.1279C82.5683 18.1279 84.0844 17.5634 85.2858 16.6176C83.643 15.3242 82.588 13.3171 82.588 11.064Z" fill="#D32011"/>
<path fill-rule="evenodd" clip-rule="evenodd" d="M96.7146 11.064C96.7146 14.9653 93.5524 18.1279 89.6515 18.1279C88.0037 18.1279 86.4875 17.5634 85.2857 16.6176C86.929 15.3242 87.984 13.3171 87.984 11.064C87.984 8.8108 86.929 6.80375 85.2857 5.51033C86.4875 4.56451 88.0037 3.99999 89.6515 3.99999C93.5524 3.99999 96.7146 7.16258 96.7146 11.064Z" fill="#0099DF"/>
<path fill-rule="evenodd" clip-rule="evenodd" d="M105.143 7.00666C106.012 7.00908 106.881 7.00791 107.751 7.00708C108.16 7.00175 108.57 7.21295 108.794 7.55791C109.002 7.85306 109.081 8.21026 109.183 8.55031C109.498 9.61041 109.808 10.6721 110.123 11.7321C110.128 11.828 110.27 11.8647 110.298 11.7628C110.62 10.6925 110.931 9.61891 111.251 8.54781C111.36 8.17029 111.455 7.76953 111.71 7.45922C111.875 7.25826 112.105 7.1151 112.355 7.04822C112.567 6.98909 112.791 7.01158 113.009 7.00791C113.772 7.01074 114.536 7.00133 115.299 7.01274C115.293 9.67562 115.302 12.3384 115.294 15.0009C114.469 14.9956 113.643 15.0082 112.817 14.9944C112.817 13.4323 112.821 11.8704 112.815 10.3084C112.81 10.1693 112.58 10.1811 112.565 10.3121C112.073 11.8725 111.578 13.4319 111.094 14.9944C110.511 15.0078 109.927 14.9972 109.343 14.9996C108.852 13.4393 108.365 11.8777 107.869 10.319C107.849 10.1901 107.696 10.1856 107.614 10.2611C107.616 11.8394 107.612 13.4177 107.616 14.996C106.792 15.0061 105.967 14.9964 105.143 15.0009C105.142 12.336 105.142 9.67154 105.143 7.00666ZM116.426 7.01024C117.25 6.99758 118.075 7.01674 118.899 7C118.912 8.58079 118.901 10.1619 118.905 11.7426C118.975 11.8058 119.105 11.8254 119.148 11.7206C119.697 10.5704 120.243 9.41903 120.792 8.2684C120.965 7.91128 121.106 7.52393 121.39 7.23527C121.517 7.11543 121.674 6.99925 121.858 7.00733C122.698 7.00775 123.538 7.00208 124.379 7.01024C124.38 9.67188 124.38 12.3334 124.379 14.9951C123.555 15.0015 122.73 15.0012 121.905 14.9955C121.905 13.4188 121.908 11.8417 121.903 10.2651C121.901 10.1297 121.672 10.1407 121.649 10.2622C121.132 11.403 120.617 12.5446 120.1 13.6854C119.941 14.0316 119.79 14.3883 119.553 14.6901C119.421 14.8581 119.228 15.009 119.003 14.9987C118.145 14.9983 117.286 15 116.427 14.9979C116.427 12.3355 116.428 9.67262 116.426 7.01024ZM125.585 10.6581C128.175 10.6406 130.765 10.6581 133.355 10.6495C133.268 11.0063 133.037 11.3133 132.793 11.5812C132.311 12.1043 131.618 12.4235 130.906 12.4424C129.961 12.4472 129.014 12.4415 128.068 12.4452C128.062 13.2969 128.068 14.1482 128.065 15C127.24 14.9963 126.415 15.0024 125.589 14.9963C125.585 13.5505 125.593 12.1043 125.585 10.6581Z" fill="#3DA536"/>
<path fill-rule="evenodd" clip-rule="evenodd" d="M125.271 7.00982C127.206 7.00733 129.141 7.00574 131.076 7.00774C131.583 7.04405 132.073 7.24993 132.475 7.55899C133.059 8.01363 133.453 8.71121 133.518 9.45042C133.533 9.71668 133.528 9.98493 133.488 10.2488C132.303 10.2557 131.117 10.2492 129.931 10.2508C129.524 10.2471 129.115 10.2675 128.711 10.2076C127.801 10.0922 126.903 9.71301 126.258 9.048C125.714 8.50292 125.379 7.7682 125.271 7.00982Z" fill="#008CD2"/>
<g style="mix-blend-mode:color">
<rect width="138" height="20" fill="#EFEFF4"/>
</g>
</g>
</svg>
