<svg width="155" height="18" viewBox="0 0 155 18" fill="none" xmlns="http://www.w3.org/2000/svg">
<path d="M4.73073 17.5974L0 0.309834H3.10323L6.73863 13.5881L10.6343 0.308558L13.527 0.309834L17.4362 13.6582L21.0878 0.313021L24.191 0.308558L19.4577 17.5949L15.8604 17.591L12.0823 4.68066L8.29897 17.5942L4.73073 17.5974ZM26.3313 0.318759H29.2853V17.5866H26.3313V0.318759ZM35.6016 14.8778H42.793V17.5866H32.7083V0.318759H35.6016V14.8778ZM51.8798 0.338522C54.3043 0.338522 56.3212 1.17495 57.9106 2.82803C59.5201 4.48112 60.3345 6.53265 60.3345 8.96223C60.3345 11.372 59.5201 13.4236 57.91 15.0971C56.3212 16.7502 54.3043 17.5866 51.8798 17.5866H44.9326V0.318759H51.8798V0.338522ZM51.8798 14.8975C53.5506 14.8975 54.9153 14.3403 55.9344 13.2247C56.9936 12.109 57.5231 10.6752 57.5231 8.98263C57.5231 7.24986 56.9936 5.8556 55.9344 4.73995C54.8946 3.62429 53.5299 3.0671 51.8798 3.0671H47.846V14.8975H51.8798ZM75.9204 12.6535C75.9204 14.0688 75.4114 15.2443 74.3723 16.1808C73.3332 17.1174 72.1106 17.5955 70.6032 17.5955H63.0444V0.318759H70.053C71.4996 0.318759 72.7215 0.796897 73.72 1.69389C74.7391 2.61 75.228 3.74669 75.228 5.10142C75.228 6.61553 74.6164 7.77135 73.4352 8.62817C74.9833 9.42507 75.9204 10.8601 75.9204 12.6535ZM65.9577 2.98868V7.53228H70.073C71.3569 7.53228 72.3347 6.53584 72.3347 5.2608C72.3347 3.98576 71.3569 2.98868 70.073 2.98868H65.9577ZM70.6232 14.9249C71.9679 14.9249 73.0277 13.8692 73.0277 12.5138C73.0277 11.1591 71.9679 10.1028 70.6232 10.1028H65.9577V14.9453H70.6232V14.9249ZM81.5637 14.8854H89.3873V17.5955H78.671V0.318759H89.2652V3.02821H81.5637V7.51251H88.6336V10.2028H81.5637V14.8854ZM102.06 17.5955L98.3108 11.2987H94.8879V17.5955H91.9952V0.318759H99.0645C100.654 0.318759 101.998 0.856824 103.078 1.95272C104.178 3.00909 104.749 4.32429 104.749 5.87856C104.749 8.07034 103.343 10.083 101.245 10.8799L105.258 17.5955H102.06ZM94.8879 2.98868V8.76779H99.0444C100.593 8.76779 101.815 7.49275 101.815 5.87856C101.815 4.28412 100.572 2.98868 99.0444 2.98868H94.8879ZM117.523 17.5955L113.795 11.2955H110.372V17.5955H107.479V0.309834H114.548C116.138 0.309834 117.482 0.847899 118.562 1.94443C119.662 3.00144 120.233 4.31727 120.233 5.87218C120.233 8.06524 118.827 10.0792 116.729 10.8767L120.742 17.5955H117.523ZM110.372 2.98104V8.76332H114.528C116.076 8.76332 117.299 7.48701 117.299 5.87218C117.299 4.27711 116.056 2.98104 114.528 2.98104H110.372ZM122.861 0.311747H125.754V17.5955H122.861V0.311747ZM132.07 14.8854H139.893V17.5949H129.176V0.318759H139.771V3.02949H132.07V7.51315H139.139V10.2035H132.07V14.886V14.8854ZM141.91 13.6627L144.416 12.2289C145.129 14.181 146.576 15.1366 148.796 15.1366C150.997 15.1366 152.076 14.2205 152.076 12.8664C152.076 12.1492 151.771 11.6315 151.201 11.2726C150.63 10.8945 149.571 10.4757 148.063 10.0384C146.372 9.54046 145.537 9.2217 144.355 8.46497C143.214 7.66807 142.643 6.53329 142.643 4.97902C142.643 3.44579 143.194 2.25044 144.314 1.35409C145.415 0.437975 146.759 0 148.328 0C151.16 0 153.34 1.43442 154.481 3.80407L152.036 5.17856C151.302 3.58476 150.06 2.76874 148.328 2.76874C146.637 2.76874 145.557 3.60516 145.557 4.91973C145.557 6.19413 146.413 6.79148 149.122 7.60814C149.795 7.82745 150.284 7.98683 150.589 8.10604C150.915 8.2055 151.343 8.38528 151.893 8.60395C152.464 8.82325 152.912 9.08208 153.177 9.30139C154.114 10.018 155.112 11.1935 154.99 12.846C154.99 14.3996 154.42 15.6549 153.258 16.571C152.117 17.4871 150.61 17.9251 148.736 17.9251C145.313 17.9053 142.827 16.3122 141.91 13.6633V13.6627Z" fill="white"/>
</svg>
