<svg xmlns="http://www.w3.org/2000/svg" width="255.272" height="52">
  <circle cx="24" cy="24" r="24" fill="#fc3f1d"/>
  <path d="M27.2 13.6H25c-4.1 0-6.2 2.1-6.2 5.1 0 3.4 1.5 5 4.5 7.1l2.5 1.7-7.2 10.8h-5.4l6.5-9.6c-3.7-2.7-5.8-5.3-5.8-9.6 0-5.5 3.8-9.2 11.1-9.2h7.2v28.5h-5V13.6z" fill="#fff"/>
  <path d="M64.54 49.43v-7.54h18.14v7.54h5.88V37h-3.38V5.75H64.12l-.52 14.87C63.34 29.2 62.66 34.24 61 37h-2.34v12.43Zm4.57-27.98.37-10.81h9.41V37H66.93c1.09-2.5 1.92-6.97 2.18-15.55Zm32.81-6.24c-6.81 0-11.54 4.84-11.54 13.63 0 8.73 4.73 13.57 11.54 13.57 6.82 0 11.55-4.84 11.55-13.63 0-8.73-4.73-13.57-11.55-13.57Zm0 22.31c-3.43 0-5.14-2.65-5.14-8.68 0-6.09 1.71-8.74 5.14-8.74 3.44 0 5.15 2.65 5.15 8.68 0 6.09-1.71 8.74-5.15 8.74Zm26.94 4.89c2.86 0 4.89-.52 6.4-1.61v-5.05c-1.56 1.09-3.44 1.77-6.04 1.77-4.42 0-6.24-3.43-6.24-8.84 0-5.67 2.24-8.58 6.3-8.58 2.39 0 4.73.83 5.98 1.61v-5.25c-1.3-.73-3.59-1.25-6.66-1.25-7.9 0-12.01 5.67-12.01 13.63 0 8.73 4 13.57 12.27 13.57Zm29.74-21.79v-4.89h-20.74v4.89h7.28v21.27h6.18V20.62Zm21.64 3.43c0-6.34-3.23-8.73-9.78-8.73-4.11 0-7.33 1.3-9.2 2.39v5.15c1.66-1.25 5.3-2.6 8.47-2.6 2.97 0 4.32 1.04 4.32 3.84v1.46h-.99c-9.46 0-13.68 3.12-13.68 8.42 0 5.31 3.23 8.27 8.01 8.27 3.64 0 5.2-1.19 6.4-2.44h.26c.05.67.26 1.56.47 2.08h6.03c-.21-2.13-.31-4.27-.31-6.4Zm-6.19 11.6c-.78 1.14-2.24 2.08-4.42 2.08-2.6 0-3.9-1.56-3.9-3.9 0-3.07 2.13-4.16 7.43-4.16h.89Zm21.47 6.24c6.14 0 9.78-2.6 9.78-7.59 0-3.44-2.08-5.41-5.56-6.04 2.8-.78 4.57-2.75 4.57-5.87 0-4.47-2.96-6.66-8.68-6.66h-10.4v26.16Zm-.78-21.48c2.24 0 3.49.94 3.49 2.91 0 1.82-1.35 2.92-3.69 2.92h-3.12v-5.83Zm.11 10.35c2.65 0 4.05.94 4.05 3.12 0 2.39-1.56 3.33-4.05 3.33h-3.43v-6.45Zm29.95 11.13h7.02l-9.93-14.09 8.73-12.07h-6.24l-8.73 12.07V15.73h-6.19v26.16h6.19V29.04Zm28.08-17.84c0-6.34-3.22-8.73-9.78-8.73-4.1 0-7.33 1.3-9.2 2.39v5.15c1.66-1.25 5.3-2.6 8.48-2.6 2.96 0 4.31 1.04 4.31 3.84v1.46h-.99c-9.46 0-13.67 3.12-13.67 8.42 0 5.31 3.22 8.27 8.01 8.27 3.64 0 5.2-1.19 6.39-2.44h.26c.05.67.26 1.56.47 2.08h6.03c-.21-2.13-.31-4.27-.31-6.4Zm-6.19 11.6c-.78 1.14-2.23 2.08-4.42 2.08-2.6 0-3.9-1.56-3.9-3.9 0-3.07 2.13-4.16 7.44-4.16h.88Z"/>
</svg>
