<svg width="68" height="24" viewBox="0 0 68 24" fill="none" xmlns="http://www.w3.org/2000/svg">
<path fill-rule="evenodd" clip-rule="evenodd" d="M52.9358 11.7505C52.9358 11.148 53.4146 10.6567 53.9892 10.6567C54.5797 10.6567 55.0423 11.148 55.0423 11.7505C55.0423 12.3527 54.5797 12.844 53.9892 12.844C53.4146 12.8598 52.9358 12.3685 52.9358 11.7505ZM53.9892 12.6061C54.436 12.6061 54.7872 12.2257 54.7872 11.7663C54.7872 11.3065 54.4201 10.9262 53.9892 10.9262C53.5421 10.9262 53.1912 11.3065 53.1912 11.7663C53.1912 12.2257 53.5421 12.6061 53.9892 12.6061ZM53.8455 12.2418H53.6221V11.275H54.0209C54.1009 11.275 54.1964 11.275 54.2605 11.3223C54.3401 11.3699 54.3722 11.465 54.3722 11.5602C54.3722 11.6711 54.3084 11.7663 54.2126 11.7978L54.3881 12.2257H54.1485L54.0051 11.8454H53.8455V12.2418ZM53.8455 11.7029H53.973C54.0209 11.7029 54.0689 11.7029 54.1009 11.6872C54.1326 11.6711 54.1485 11.6235 54.1485 11.5759C54.1485 11.5444 54.1326 11.4968 54.1009 11.4811C54.0689 11.465 54.0051 11.465 53.973 11.465H53.8613L53.8455 11.7029Z" fill="#FD0C15"/>
<path fill-rule="evenodd" clip-rule="evenodd" d="M37.8548 4.444L37.5677 6.31425C36.9452 5.98148 36.4822 5.85449 35.9876 5.85449C34.679 5.85449 33.7532 7.18587 33.7532 9.07218C33.7532 10.3717 34.3757 11.1643 35.3971 11.1643C35.828 11.1643 36.3068 11.0215 36.8972 10.7203L36.5939 12.6857C35.9396 12.876 35.5246 12.9394 35.03 12.9394C33.1309 12.9394 31.95 11.5128 31.95 9.23038C31.95 6.15574 33.5777 4 35.9238 4C36.2268 4 36.4981 4.03182 36.7218 4.09517L37.4557 4.2855C37.6473 4.36459 37.6952 4.38066 37.8548 4.444Z" fill="#FD0C15"/>
<path fill-rule="evenodd" clip-rule="evenodd" d="M31.9977 5.72767C31.9498 5.71191 31.886 5.71191 31.8222 5.71191C31.2476 5.71191 30.9125 6.01286 30.3699 6.85297L30.5295 5.79101H28.9335L27.8484 12.7807H29.6199C30.2579 8.50137 30.4175 7.77218 31.2635 7.77218C31.3114 7.77218 31.3272 7.77218 31.391 7.77218C31.5506 6.93238 31.7581 6.31411 32.0615 5.74343L31.9977 5.72767Z" fill="#FD0C15"/>
<path fill-rule="evenodd" clip-rule="evenodd" d="M21.4489 12.6855C20.9701 12.844 20.5871 12.9235 20.188 12.9235C19.2945 12.9235 18.7998 12.3843 18.7998 11.386C18.7998 11.1957 18.8157 10.9738 18.8474 10.752L18.9591 10.0704L19.039 9.51574L19.805 4.74512H21.5606L21.3531 5.77525H22.2628L22.0074 7.47123L21.1135 7.47092L20.6509 10.3874C20.635 10.514 20.6189 10.6092 20.6189 10.6726C20.6189 11.0371 20.8105 11.1957 21.2255 11.1957C21.433 11.1957 21.5765 11.1799 21.704 11.1323L21.4489 12.6855Z" fill="#FD0C15"/>
<path fill-rule="evenodd" clip-rule="evenodd" d="M14.4907 7.99433C14.4907 8.88203 14.9057 9.48422 15.8313 9.94398C16.5334 10.2925 16.6613 10.4034 16.6613 10.7204C16.6613 11.1484 16.3421 11.3545 15.6558 11.3545C15.1291 11.3545 14.6503 11.2754 14.076 11.0693L13.8364 12.6859L13.9164 12.7016L14.2356 12.7653C14.3473 12.781 14.4907 12.8125 14.6982 12.8286C15.1132 12.8601 15.4483 12.8919 15.6717 12.8919C17.5231 12.8919 18.3849 12.147 18.3849 10.5619C18.3849 9.6109 18.0336 9.04053 17.1398 8.6126C16.4059 8.26376 16.3259 8.18466 16.3259 7.85158C16.3259 7.47123 16.6134 7.28121 17.1877 7.28121C17.539 7.28121 18.0016 7.32879 18.4486 7.39213L18.7041 5.77556C18.2411 5.69615 17.5548 5.63281 17.156 5.63281C15.1611 5.63281 14.4748 6.69477 14.4907 7.99433Z" fill="#FD0C15"/>
<path fill-rule="evenodd" clip-rule="evenodd" d="M51.9146 12.7653H50.2389L50.3186 12.0837C49.8398 12.6225 49.3292 12.8601 48.6908 12.8601C47.3982 12.8601 46.5522 11.7033 46.5522 9.95975C46.5522 7.62975 47.8611 5.66465 49.425 5.66465C50.1114 5.66465 50.6219 5.96559 51.1166 6.61538L51.4995 4.15869H53.2393L51.9146 12.7653ZM49.3134 11.1326C50.1431 11.1326 50.7177 10.1658 50.7177 8.77112C50.7177 7.88342 50.3826 7.39215 49.776 7.39215C48.978 7.39215 48.4037 8.37501 48.4037 9.73791C48.4037 10.6571 48.7067 11.1326 49.3134 11.1326Z" fill="#FD0C15"/>
<path fill-rule="evenodd" clip-rule="evenodd" d="M27.0346 12.6223C26.4279 12.8123 25.8536 12.9075 25.2152 12.9075C23.2521 12.9075 22.2148 11.8298 22.2148 9.7695C22.2148 7.36039 23.5234 5.60107 25.2948 5.60107C26.7471 5.60107 27.673 6.59938 27.673 8.15261C27.673 8.65996 27.6089 9.16699 27.4493 9.88042H23.9384C23.9225 9.99134 23.9225 10.0389 23.9225 10.1023C23.9225 10.9263 24.4492 11.3385 25.4706 11.3385C26.0928 11.3385 26.6675 11.1957 27.3059 10.8948L27.0346 12.6223ZM26.0449 8.45387C26.0608 8.31112 26.0608 8.18444 26.0608 8.10503C26.0608 7.53466 25.7578 7.20158 25.2311 7.20158C24.6726 7.20158 24.2735 7.64558 24.1139 8.45387H26.0449Z" fill="#FD0C15"/>
<path fill-rule="evenodd" clip-rule="evenodd" d="M7.40496 12.7648H5.64936L6.65487 6.15548L4.38874 12.7648H3.19158L3.04816 6.20307L1.97887 12.7648H0.334961L1.70758 4.17432H4.24501L4.30878 9.49986L6.03234 4.17432H8.77727L7.40496 12.7648Z" fill="#FD0C15"/>
<path fill-rule="evenodd" clip-rule="evenodd" d="M11.9531 9.65813C11.7618 9.64237 11.6819 9.62662 11.5543 9.62662C10.5488 9.62662 10.0541 9.99121 10.0541 10.6886C10.0541 11.1165 10.3095 11.4017 10.6925 11.4017C11.3947 11.4017 11.9214 10.6886 11.9531 9.65813ZM13.2299 12.7649H11.7618L11.7935 12.0357C11.3468 12.6222 10.7563 12.8758 9.94243 12.8758C8.98483 12.8758 8.33057 12.0991 8.33057 10.9738C8.33057 9.26202 9.4795 8.27947 11.4264 8.27947C11.6339 8.27947 11.8894 8.29523 12.1448 8.32705C12.1927 8.08914 12.2086 7.99398 12.2086 7.86729C12.2086 7.40754 11.9052 7.23327 11.0755 7.23327C10.5808 7.23327 10.0062 7.31268 9.60737 7.43936L9.38368 7.51846L9.22439 7.56604L9.46363 5.99705C10.3413 5.72762 10.9318 5.6167 11.5702 5.6167C13.0862 5.6167 13.8842 6.32982 13.8842 7.66121C13.8842 8.01004 13.8522 8.2634 13.7405 9.05593L13.3895 11.5444L13.3258 11.9881L13.2779 12.337L13.2458 12.5903L13.2299 12.7649Z" fill="#FD0C15"/>
<path fill-rule="evenodd" clip-rule="evenodd" d="M40.9026 9.65826C40.7271 9.64251 40.6313 9.62675 40.5038 9.62675C39.4982 9.62675 38.9877 9.99134 38.9877 10.6887C38.9877 11.1166 39.2431 11.4018 39.6261 11.4018C40.3442 11.4018 40.8709 10.6887 40.9026 9.65826ZM42.1794 12.765H40.7113L40.743 12.0359C40.2963 12.6223 39.7058 12.876 38.8919 12.876C37.9343 12.876 37.28 12.0992 37.28 10.9739C37.28 9.26215 38.4293 8.2796 40.3762 8.2796C40.5675 8.2796 40.8388 8.29536 41.0943 8.32719C41.1422 8.08927 41.158 7.99411 41.158 7.86743C41.158 7.40767 40.8547 7.2334 40.025 7.2334C39.5303 7.2334 38.9557 7.31281 38.5568 7.43949L38.3014 7.50283L38.1418 7.55042L38.3814 5.98143C39.259 5.712 39.8495 5.60107 40.4879 5.60107C42.0039 5.60107 42.8019 6.3142 42.8019 7.64558C42.8019 7.99411 42.7699 8.24778 42.6582 9.04031L42.2911 11.5128L42.2432 11.9564L42.1953 12.3053L42.1635 12.5432L42.1794 12.765Z" fill="#FD0C15"/>
<path fill-rule="evenodd" clip-rule="evenodd" d="M47.111 5.72767C47.063 5.71191 46.9993 5.71191 46.9355 5.71191C46.3609 5.71191 46.0258 6.01286 45.4829 6.85297L45.6425 5.79101H44.0468L42.9617 12.7807H44.7331C45.3712 8.50137 45.5308 7.77218 46.3767 7.77218C46.4246 7.77218 46.4246 7.77218 46.5046 7.77218C46.6639 6.93238 46.8876 6.31411 47.1747 5.74343L47.111 5.72767Z" fill="#FD0C15"/>
<path fill-rule="evenodd" clip-rule="evenodd" d="M39.7059 19.5646C39.7059 21.1497 39.2112 22.0846 38.4294 22.0846C37.8548 22.1004 37.5197 21.4664 37.5197 20.5314C37.5197 19.4219 38.0302 18.1541 38.8282 18.1541C39.4825 18.1541 39.7059 18.8354 39.7059 19.5646ZM41.4456 19.5804C41.4456 17.821 40.5677 16.4424 38.9237 16.4424C37.0247 16.4424 35.7961 18.1065 35.7961 20.5632C35.7961 22.3222 36.5301 23.7649 38.3174 23.7649C40.1209 23.7649 41.4456 22.4968 41.4456 19.5804Z" fill="#F3AE12"/>
<path fill-rule="evenodd" clip-rule="evenodd" d="M36.3547 15.2215L36.0834 17.0921C35.4929 16.759 35.0779 16.6323 34.6149 16.6323C33.3864 16.6323 32.5246 17.9637 32.5246 19.8497C32.5246 21.1493 33.0989 21.9418 34.0565 21.9418C34.4715 21.9418 34.9183 21.7994 35.4609 21.4981L35.1737 23.4635C34.567 23.6535 34.1682 23.7169 33.7052 23.7169C31.9341 23.7169 30.8169 22.2906 30.8169 20.0082C30.8169 16.9333 32.3488 14.7778 34.5353 14.7778C34.8224 14.7778 35.062 14.8097 35.2695 14.873L35.9396 15.0633C36.163 15.1267 36.2109 15.1424 36.3547 15.2215Z" fill="#F3AE12"/>
<path fill-rule="evenodd" clip-rule="evenodd" d="M25.4544 16.4894C25.4065 16.4736 25.3427 16.4736 25.279 16.4736C24.7364 16.4736 24.433 16.7749 23.9225 17.6147L24.0821 16.5527H22.5978L21.5923 23.5424H23.2362C23.8267 19.2631 23.9863 18.5342 24.7681 18.5342C24.816 18.5342 24.816 18.5342 24.896 18.55C25.0394 17.7099 25.2469 17.0919 25.5182 16.5212L25.4544 16.4894Z" fill="#F3AE12"/>
<path fill-rule="evenodd" clip-rule="evenodd" d="M46.9671 23.4792H45.4032L45.4828 22.7976C45.0361 23.3364 44.5573 23.5744 43.9509 23.5744C42.7541 23.5744 41.9561 22.4172 41.9561 20.674C41.9561 18.344 43.1849 16.3786 44.6372 16.3786C45.2753 16.3786 45.7703 16.6798 46.217 17.3454L46.5841 14.8887H48.2119L46.9671 23.4792ZM44.5255 21.8308C45.3073 21.8308 45.8341 20.864 45.8341 19.4693C45.8341 18.5819 45.5307 18.1064 44.9564 18.1064C44.2063 18.1064 43.6796 19.0732 43.6796 20.4518C43.6796 21.3713 43.9668 21.8308 44.5255 21.8308Z" fill="#F3AE12"/>
<path fill-rule="evenodd" clip-rule="evenodd" d="M10.0063 23.4475C9.44788 23.6378 8.90531 23.733 8.31482 23.733C6.47926 23.733 5.52197 22.6553 5.52197 20.5947C5.52197 18.2013 6.75086 16.4263 8.39446 16.4263C9.75091 16.4263 10.6127 17.4088 10.6127 18.9781C10.6127 19.4855 10.5489 19.9925 10.4052 20.7056H7.13384C7.11766 20.8165 7.11766 20.8641 7.11766 20.9275C7.11766 21.7357 7.61264 22.1479 8.57024 22.1479C9.16042 22.1479 9.68713 22.0055 10.2776 21.7042L10.0063 23.4475ZM9.08077 19.2791C9.08077 19.1366 9.09664 19.0099 9.09664 18.9305C9.09664 18.3599 8.80948 18.0271 8.31482 18.0271C7.78811 18.0271 7.42099 18.4708 7.26139 19.2791H9.08077Z" fill="#F3AE12"/>
<path fill-rule="evenodd" clip-rule="evenodd" d="M29.6037 23.4475C29.0453 23.6378 28.5027 23.733 27.9122 23.733C26.0608 23.733 25.1035 22.6553 25.1035 20.5947C25.1035 18.2013 26.3321 16.4263 27.976 16.4263C29.3324 16.4263 30.2104 17.4088 30.2104 18.9781C30.2104 19.4855 30.1466 19.9925 30.0029 20.7056H26.7312C26.7151 20.8165 26.7151 20.8641 26.7151 20.9275C26.7151 21.7357 27.21 22.1479 28.1676 22.1479C28.7581 22.1479 29.2848 22.0055 29.875 21.7042L29.6037 23.4475ZM28.6782 19.2791C28.694 19.1366 28.694 19.0099 28.694 18.9305C28.694 18.3599 28.4069 18.0271 27.9122 18.0271C27.3855 18.0271 27.0184 18.4708 26.8588 19.2791H28.6782Z" fill="#F3AE12"/>
<path fill-rule="evenodd" clip-rule="evenodd" d="M52.585 23.4475C52.0104 23.6378 51.4678 23.733 50.8932 23.733C49.0579 23.733 48.0845 22.6553 48.0845 20.5947C48.0845 18.2013 49.3134 16.4263 50.9731 16.4263C52.3296 16.4263 53.1914 17.4088 53.1914 18.9781C53.1914 19.4855 53.1276 19.9925 52.9838 20.7056H49.7122C49.6963 20.8165 49.6963 20.8641 49.6963 20.9275C49.6963 21.7357 50.191 22.1479 51.1486 22.1479C51.7391 22.1479 52.2658 22.0055 52.8563 21.7042L52.585 23.4475ZM51.6591 19.2791C51.6591 19.1366 51.6753 19.0099 51.6753 18.9305C51.6753 18.3599 51.3879 18.0271 50.8932 18.0271C50.3665 18.0271 49.9994 18.4708 49.8398 19.2791H51.6591Z" fill="#F3AE12"/>
<path fill-rule="evenodd" clip-rule="evenodd" d="M5.12276 16.8065C4.80356 16.5847 4.3568 16.4104 3.75044 16.4104C3.08 16.4104 2.55329 16.5529 2.55329 17.2502C2.55329 18.4868 4.97933 18.027 4.97933 20.6898C4.97933 23.1146 3.38333 23.7486 1.93107 23.7486C1.29267 23.7486 0.542578 23.5426 0 23.2889L0.398844 21.5138C0.734222 21.8151 1.38849 22.0212 1.94693 22.0212C2.47364 22.0212 3.27164 21.8784 3.27164 20.975C3.27164 19.5645 0.845911 20.0876 0.845911 17.6148C0.845911 15.3485 2.26613 14.6826 3.63876 14.6826C4.40471 14.6826 5.13893 14.7935 5.55364 15.079L5.12276 16.8065Z" fill="#F3AE12"/>
<path fill-rule="evenodd" clip-rule="evenodd" d="M14.8259 23.4474C14.4906 23.6059 14.0279 23.7171 13.3575 23.7171C11.9214 23.7171 11.0276 22.2906 11.0276 20.547C11.0276 18.2646 12.3203 16.458 14.2193 16.458C14.6343 16.458 15.2727 16.6323 15.7674 16.9175L15.4003 18.5819C15.0493 18.344 14.6822 18.2013 14.2992 18.2013C13.4213 18.2013 12.7832 19.0099 12.7832 20.4361C12.7832 21.2605 13.2458 21.9418 13.9642 21.9418C14.3951 21.9418 14.6981 21.8469 15.0652 21.6408L14.8259 23.4474Z" fill="#F3AE12"/>
<path fill-rule="evenodd" clip-rule="evenodd" d="M20.986 21.688C20.9064 22.2905 20.8264 22.8769 20.7785 23.4949H19.1987L19.3263 22.3696H19.3104C18.8157 23.1306 18.3049 23.6534 17.3952 23.6534C16.4059 23.6534 15.8633 22.6075 15.8633 21.2604C15.8633 20.7849 15.895 20.5312 15.9908 19.802L16.4379 16.5688H18.2091L17.7306 19.8178C17.6827 20.1666 17.6189 20.5154 17.6189 20.8797C17.6189 21.2919 17.8102 21.7041 18.289 21.6722C19.0074 21.6722 19.4379 20.8006 19.5658 19.7705L20.0605 16.5688H21.7682L20.986 21.688Z" fill="#F3AE12"/>
<path fill-rule="evenodd" clip-rule="evenodd" d="M54.2285 23.4159H53.9572V22.2587H53.5742V22.0054H54.6115V22.2587H54.2285V23.4159Z" fill="#F3AE12"/>
<path fill-rule="evenodd" clip-rule="evenodd" d="M56.0001 23.4159H55.7447V22.243L55.5055 23.4159H55.25L55.0108 22.243V23.4159H54.7554V22.0054H55.1542L55.3779 23.1146H55.3938L55.6172 22.0054H56.0001V23.4159Z" fill="#F3AE12"/>
</svg>
