<svg width="60" height="24" viewBox="0 0 60 24" fill="none" xmlns="http://www.w3.org/2000/svg">
<mask id="mask0" mask-type="alpha" maskUnits="userSpaceOnUse" x="0" y="9" width="60" height="16">
<path d="M0 9.46777H60V24.0002H0V9.46777Z" fill="white"/>
</mask>
<g mask="url(#mask0)">
<path fill-rule="evenodd" clip-rule="evenodd" d="M30.8116 16.1114C30.7046 14.8801 30.0924 14.2262 28.9585 14.2262C28.04 14.2262 27.1979 14.7433 27.0139 16.1114H30.8116ZM25.0996 16.9023C25.0996 13.8309 27.2895 12.706 28.9742 12.706C30.7967 12.706 32.5425 13.7853 32.5425 17.0691V17.51H26.9834C27.0599 18.9696 27.9636 19.6079 29.1582 19.6079C30.2145 19.6079 30.8272 19.2584 31.44 18.6657L32.4352 19.6385C31.5926 20.5659 30.4752 21.098 29.0201 21.098C26.9834 21.098 25.0996 19.8667 25.0996 16.9023ZM20.4745 20.9307V14.3482H19.0656V12.8578H20.4745V12.0374C20.4745 10.6843 21.0413 9.63541 23.1088 9.63541C23.4611 9.63541 24.0889 9.69602 24.2264 9.71131V11.1553C24.1041 11.1247 23.7974 11.0947 23.5832 11.0947C22.91 11.0947 22.3583 11.2773 22.3583 12.1439V12.8578H24.1346V14.3482H22.3583V20.9307H20.4745ZM15.5282 18.681V16.9023C13.2769 17.2062 12.0826 17.7536 12.0826 18.6351C12.0826 19.2737 12.5267 19.6079 13.2162 19.6079C14.1809 19.6079 14.9308 19.2431 15.5282 18.681ZM10.2295 18.9846C10.2295 17.2362 11.7308 16.0658 15.5282 15.6401V15.3969C15.5282 14.5912 15.0997 14.2418 14.1963 14.2418C13.0627 14.2418 12.1439 14.7892 11.455 15.3363L10.5362 14.1653C11.4091 13.3752 12.772 12.706 14.4564 12.706C16.6309 12.706 17.3812 13.7399 17.3812 15.6248V18.9546C17.3812 19.9276 17.4425 20.5206 17.6111 20.9307H15.7121C15.6052 20.5962 15.5282 20.3532 15.5282 19.897C14.7012 20.7333 13.7367 21.0524 12.5267 21.0524C11.2097 21.0524 10.2295 20.3227 10.2295 18.9846ZM0 18.2857L1.51613 17.4953C2.18962 18.8175 3.23109 19.4561 4.63968 19.4561C6.01803 19.4561 6.95224 19.0152 6.95224 17.9965C6.95224 17.0235 6.24823 16.5676 4.37953 16.0202C2.18962 15.3819 0.428739 14.7892 0.428739 12.6451C0.428739 10.7299 2.0062 9.46777 4.30336 9.46777C6.53863 9.46777 7.85565 10.5626 8.5451 11.8848L7.15135 12.8431C6.47786 11.7177 5.51284 11.2009 4.28795 11.2009C3.03198 11.2009 2.31228 11.6574 2.31228 12.4778C2.31228 13.5273 3.12383 13.8764 4.97657 14.4238C7.12083 15.0474 8.83578 15.7466 8.83578 17.8598C8.83578 19.6996 7.25861 21.1436 4.56351 21.1436C2.31228 21.1436 0.71942 19.9879 0 18.2857Z" fill="white"/>
<path fill-rule="evenodd" clip-rule="evenodd" d="M52.2672 23.8194L52.573 22.7705C52.8026 22.8311 53.2014 22.907 53.7677 22.907C54.5941 22.907 54.9928 22.5575 55.3138 21.7671L55.6198 20.9762L52.4963 12.9033H53.89L56.2642 19.3951H56.2939L58.6681 12.9033H59.9999L56.5392 21.843C55.9881 23.2567 55.36 24.0168 53.7825 24.0168C53.0625 24.0168 52.6189 23.9259 52.2672 23.8194ZM50.0457 16.2331C49.939 14.8038 49.2501 13.8308 47.9168 13.8308C46.8305 13.8308 45.8042 14.5761 45.6208 16.2331H50.0457ZM44.2729 16.917C44.2729 13.9982 46.2332 12.7368 47.933 12.7368C49.8474 12.7368 51.3019 14.0743 51.3019 16.9781V17.2517H45.59C45.6359 19.061 46.6925 20.034 48.0246 20.034C49.1882 20.034 49.8474 19.5622 50.4596 18.7265L51.2252 19.3951C50.4744 20.4596 49.4483 21.098 47.933 21.098C46.0187 21.098 44.2729 19.714 44.2729 16.917ZM34.9009 20.9306V9.68066H36.2476V15.4883L41.3787 9.68066H43.0018L39.1113 13.9678L43.5373 20.9306H41.9906L38.2238 14.9865L36.2476 17.1296V20.9306H34.9009Z" fill="white"/>
</g>
<path fill-rule="evenodd" clip-rule="evenodd" d="M43.5659 5.19572C43.3388 5.19572 42.9927 5.19572 42.9927 5.19572V4.59994C42.9927 4.59994 43.4942 4.59994 43.5682 4.59994C43.7964 4.59994 43.9608 4.68363 43.9608 4.88685C43.9608 5.09091 43.7913 5.19572 43.5659 5.19572ZM43.8034 4.06255C43.588 4.06255 43.2909 4.06255 42.9927 4.06255C42.4444 4.06255 41.9022 4.06255 41.9022 4.06255V6.68641H42.9927V5.75507C42.9927 5.75507 43.3957 5.75507 43.7057 5.75507C44.0367 5.75507 44.3178 5.72977 44.5741 5.62302C44.872 5.49875 45.0896 5.28496 45.0896 4.89658C45.0896 4.18126 44.4545 4.06255 43.8034 4.06255ZM34.0048 4.06255H36.7262V4.59994H35.2082V5.09091H36.7262V5.59855H35.2082V6.11148H36.7262V6.68641H34.0048V4.06255ZM24.5857 5.57576L24.9957 4.7295L25.4037 5.57576H24.5857ZM24.2942 4.06255L22.9411 6.68641H24.0508L24.2995 6.16986H25.6905L25.9403 6.68641H27.1156L25.7627 4.06255H24.2942ZM30.4343 4.06255H31.524V6.68641H30.27L28.6622 5.20573V6.68641H27.5718V4.06255H28.8126L30.4343 5.54907V4.06255ZM47.3588 5.24326C47.1336 5.24326 46.7119 5.24326 46.7119 5.24326V4.62163C46.7119 4.62163 47.2879 4.62163 47.3607 4.62163C47.5909 4.62163 47.7556 4.73172 47.7556 4.9355C47.7556 5.13956 47.5862 5.24326 47.3588 5.24326ZM48.8822 4.89658C48.8822 4.18126 48.2482 4.06255 47.5982 4.06255C47.3697 4.06255 47.0378 4.06255 46.7119 4.06255C46.1594 4.06255 45.622 4.06255 45.622 4.06255V6.68641H46.7119V5.71143H46.7995L47.6268 6.68641H49.1583L48.0446 5.65304C48.5792 5.56297 48.8822 5.28496 48.8822 4.89658ZM59.8185 5.90464C59.8185 6.17181 59.5993 6.77009 58.2542 6.77009C57.1475 6.77009 56.7448 6.54796 56.5073 6.41618L56.8613 5.94718C57.3239 6.12705 57.6858 6.13511 57.9493 6.13205C58.2293 6.12816 58.4906 6.07673 58.4937 5.90548C58.4976 5.72644 58.3192 5.6839 57.8972 5.65193C57.5065 5.62246 56.649 5.51432 56.6432 4.89658C56.6362 4.29525 57.2803 4.0025 58.2044 4.0025C58.7071 4.0025 59.3251 4.07868 59.7617 4.31193L59.3859 4.77314C59.0451 4.65388 58.7827 4.6283 58.5205 4.6283C58.2352 4.6283 57.942 4.6789 57.942 4.87434C57.942 5.07061 58.2453 5.07701 58.4606 5.10175C58.7367 5.13428 59.0929 5.13956 59.3789 5.26605C59.7208 5.41757 59.8185 5.62636 59.8185 5.90464ZM56.1525 5.90464C56.1525 6.17181 55.9313 6.77009 54.5863 6.77009C53.4807 6.77009 53.1295 6.54796 52.8932 6.41618L53.1942 5.94718C53.6568 6.12705 54.0198 6.13511 54.2822 6.13205C54.5633 6.12816 54.8243 6.07673 54.8254 5.90548C54.8285 5.72644 54.651 5.6839 54.2292 5.65193C53.8394 5.62246 53.0337 5.51432 53.0279 4.89658C53.0209 4.29525 53.6109 4.0025 54.5384 4.0025C55.0399 4.0025 55.6591 4.07868 56.0937 4.31193L55.7199 4.77314C55.3768 4.65388 55.1156 4.6283 54.8523 4.6283C54.5672 4.6283 54.276 4.6789 54.276 4.87434C54.276 5.07061 54.5773 5.07701 54.7935 5.10175C55.0696 5.13428 55.4247 5.13956 55.7129 5.26605C56.0548 5.41757 56.1525 5.62636 56.1525 5.90464ZM49.6618 4.06255H52.3838V4.59994H50.8654V5.09091H52.3838V5.59855H50.8654V6.11148H52.3838V6.68641H49.6618V4.06255ZM40.1133 5.33278L41.3365 6.68641H40.0377L39.3239 5.84515L38.6109 6.68641H37.3107L38.537 5.33278L37.4345 4.06255H38.7546L39.3239 4.7623L39.8952 4.06255H41.2153L40.1133 5.33278ZM8.97692 4.06255L9.61597 6.68641H8.52242L8.16144 5.19961L7.46219 6.68641H6.77189L6.07263 5.19961L5.71166 6.68641H4.6856L5.32493 4.06255H6.49577L7.1183 5.35974L7.73803 4.06255H8.97692ZM2.04848 5.57576L2.45705 4.7295L2.86591 5.57576H2.04848ZM1.75612 4.06255L0.403809 6.68641H1.51248L1.762 6.16986H3.15267L3.4019 6.68641H4.57863L3.2252 4.06255H1.75612ZM10.1951 4.06255H12.9165V4.59994H11.3995V5.09091H12.9165V5.59855H11.3995V6.11148H12.9165V6.68641H10.1951V4.06255ZM17.7183 6.68641H18.8729V4.06255H17.7183V6.68641ZM21.5812 4C22.0662 4 22.4272 4.07034 22.6252 4.14484V4.78788C22.423 4.73728 22.1382 4.67612 21.771 4.67612C21.5899 4.67612 20.7352 4.70364 20.7352 5.39589C20.7352 6.08757 21.5899 6.09452 21.771 6.09452C22.106 6.09452 22.423 6.03364 22.6252 5.98165V6.62691C22.4272 6.70031 22.0662 6.77009 21.5812 6.77009C21.0102 6.77009 19.5277 6.61718 19.5277 5.39589C19.5277 4.17431 21.0102 4 21.5812 4ZM15.4525 5.24326C15.2265 5.24326 14.8059 5.24326 14.8059 5.24326V4.62163C14.8059 4.62163 15.3814 4.62163 15.4553 4.62163C15.6844 4.62163 15.8493 4.73172 15.8493 4.9355C15.8493 5.13956 15.6788 5.24326 15.4525 5.24326ZM16.9759 4.89658C16.9759 4.18126 16.3414 4.06255 15.6911 4.06255C15.4629 4.06255 15.1325 4.06255 14.8059 4.06255C14.2528 4.06255 13.7152 4.06255 13.7152 4.06255V6.68641H14.8059V5.71143H14.8927L15.7208 6.68641H17.2526L16.1384 5.65304C16.6729 5.56297 16.9759 5.28496 16.9759 4.89658Z" fill="white"/>
</svg>
