<svg width="56" height="24" viewBox="0 0 56 24" fill="none" xmlns="http://www.w3.org/2000/svg">
<g clip-path="url(#clip0)">
<path fill-rule="evenodd" clip-rule="evenodd" d="M19.0079 14.6738L16.6523 20.9431L16.4011 19.6693C15.8145 18.1073 14.5443 16.4687 13.0652 15.8046L15.2202 23.8548L17.7677 23.8535L21.5561 14.6738H19.0079Z" fill="#1C548E"/>
<path fill-rule="evenodd" clip-rule="evenodd" d="M21.0269 23.8638L22.5329 14.665H24.9394L23.4326 23.8638H21.0269Z" fill="#1C548E"/>
<path fill-rule="evenodd" clip-rule="evenodd" d="M32.1634 14.892C31.6878 14.7065 30.9375 14.5049 30.0067 14.5049C27.6259 14.5049 25.9534 15.7538 25.9388 17.5401C25.9235 18.8631 27.1347 19.6012 28.0453 20.0407C28.9851 20.4905 29.2989 20.7793 29.2959 21.1817C29.2868 21.798 28.5441 22.0789 27.8539 22.0789C26.8919 22.0789 26.3792 21.9403 25.5906 21.5981L25.278 21.4514L24.9412 23.5101C25.5043 23.7663 26.5437 23.9884 27.6242 23.9999C30.1506 23.9999 31.7944 22.7652 31.814 20.8586C31.8241 19.8091 31.1811 19.0147 29.7913 18.3589C28.9524 17.9325 28.4336 17.6499 28.4412 17.2176C28.442 16.8359 28.8765 16.4269 29.8202 16.4269C30.6084 16.4139 31.1752 16.5924 31.6213 16.7805L31.836 16.886L32.1634 14.892Z" fill="#1C548E"/>
<path fill-rule="evenodd" clip-rule="evenodd" d="M38.3356 14.6748H36.4764C35.8999 14.6748 35.4679 14.8369 35.2134 15.4382L31.6409 23.867H34.1686C34.1686 23.867 34.5818 22.7326 34.6753 22.4839C34.951 22.4839 37.406 22.4895 37.7564 22.4895C37.8309 22.8102 38.0495 23.867 38.0495 23.867H40.2844L38.3356 14.6748ZM35.3677 20.6024C35.5676 20.0745 36.3265 18.0312 36.3265 18.0312C36.3117 18.0561 36.5239 17.4991 36.6465 17.1547L36.8068 17.9477C36.8068 17.9477 37.2692 20.1428 37.3657 20.6024C36.991 20.6024 35.8369 20.6024 35.3677 20.6024Z" fill="#1C548E"/>
<path fill-rule="evenodd" clip-rule="evenodd" d="M14.4669 14.6694H10.5855L10.5627 14.8278C13.5806 15.5896 15.5719 17.4601 16.4008 19.672L15.5573 15.4443C15.4124 14.8627 14.99 14.6899 14.4669 14.6694Z" fill="#E79F3F"/>
<path fill-rule="evenodd" clip-rule="evenodd" d="M3.30521 12.4466H1.77044L0 4.57096L1.69625 4.29102L2.90755 10.4546L5.9929 4.37253H7.62214L3.30521 12.4466Z" fill="#1C548E"/>
<path fill-rule="evenodd" clip-rule="evenodd" d="M11.2862 9.87179H7.62633C7.52642 10.9669 8.04205 11.4448 8.91577 11.4448C9.64779 11.4448 10.2918 11.1765 10.9847 10.7455L10.9793 11.8406C10.2997 12.2602 9.51424 12.5282 8.59329 12.5282C6.99966 12.5282 5.94714 11.631 6.26344 9.60356C6.54858 7.77455 7.83085 6.66797 9.31838 6.66797C11.0302 6.66797 11.5995 7.93783 11.3507 9.534C11.3327 9.65042 11.2988 9.79027 11.2862 9.87179ZM9.13241 7.63495C8.56559 7.63495 8.03611 8.07743 7.78633 8.99804H10.0529C10.0947 8.12405 9.81694 7.63495 9.13241 7.63495Z" fill="#1C548E"/>
<path fill-rule="evenodd" clip-rule="evenodd" d="M13.6718 9.1845L13.1685 12.4118H11.752L12.6294 6.78414H13.8338L13.8345 7.9144C14.314 7.26202 14.9662 6.71458 15.8587 6.66797L15.8668 8.05425C14.9723 8.11258 14.1676 8.5785 13.6718 9.1845Z" fill="#1C548E"/>
<path fill-rule="evenodd" clip-rule="evenodd" d="M15.8481 12.412L16.7258 6.78435H18.1424L17.2649 12.412H15.8481ZM17.5931 5.8408C17.121 5.8408 16.7941 5.51449 16.8668 5.04857C16.9412 4.57094 17.3718 4.23291 17.8439 4.23291C18.3044 4.23291 18.6293 4.57094 18.5549 5.04857C18.4822 5.51449 18.0536 5.8408 17.5931 5.8408Z" fill="#1C548E"/>
<path fill-rule="evenodd" clip-rule="evenodd" d="M22.0659 5.24671C21.5816 5.24671 21.2893 5.45636 21.2112 5.95766L21.0821 6.78455H22.1682L22.1672 7.92628H20.904L20.2044 12.4122H18.7997L19.4993 7.92628H18.6729L18.8509 6.78455H19.6772L19.828 5.81757C20.0224 4.57114 20.8978 4.10498 22.0666 4.10498C22.3146 4.10498 22.4999 4.12841 22.6381 4.1516L22.6487 5.29332C22.5105 5.27014 22.3018 5.24671 22.0659 5.24671Z" fill="#1C548E"/>
<path fill-rule="evenodd" clip-rule="evenodd" d="M22.0813 12.412L22.959 6.78435H24.3755L23.4981 12.412H22.0813ZM23.8263 5.8408C23.3542 5.8408 23.0272 5.51449 23.0999 5.04857C23.1744 4.57094 23.6049 4.23291 24.077 4.23291C24.5375 4.23291 24.8627 4.57094 24.7883 5.04857C24.7156 5.51449 24.2868 5.8408 23.8263 5.8408Z" fill="#1C548E"/>
<path fill-rule="evenodd" clip-rule="evenodd" d="M29.8681 9.87179H26.2083C26.1084 10.9669 26.624 11.4448 27.4977 11.4448C28.2298 11.4448 28.8735 11.1765 29.5667 10.7455L29.561 11.8406C28.8816 12.2602 28.096 12.5282 27.175 12.5282C25.5814 12.5282 24.5291 11.631 24.8452 9.60356C25.1305 7.77455 26.4128 6.66797 27.9003 6.66797C29.6122 6.66797 30.1815 7.93783 29.9327 9.534C29.9144 9.65042 29.8807 9.79027 29.8681 9.87179ZM27.7141 7.63495C27.1473 7.63495 26.6178 8.07743 26.3683 8.99804H28.6348C28.6766 8.12405 28.3987 7.63495 27.7141 7.63495Z" fill="#1C548E"/>
<path fill-rule="evenodd" clip-rule="evenodd" d="M34.0643 12.4119L34.0678 11.6311C33.5917 12.109 32.9717 12.5283 32.1806 12.5283C30.9881 12.5283 30.1686 11.6546 30.4646 9.75525C30.7915 7.65826 32.1057 6.72619 33.4278 6.72619C33.9711 6.72619 34.3935 6.81942 34.7175 6.93584L35.1408 4.22112L36.592 4L35.2803 12.4119H34.0643ZM34.5377 8.08928C34.209 7.926 33.9501 7.84448 33.4661 7.84448C32.7222 7.84448 32.0866 8.43878 31.894 9.67398C31.7234 10.7688 32.1156 11.2816 32.7413 11.2816C33.2606 11.2816 33.7092 10.979 34.1595 10.5128L34.5377 8.08928Z" fill="#1C548E"/>
<path fill-rule="evenodd" clip-rule="evenodd" d="M39.62 12.465C38.9493 12.465 38.4027 12.3588 37.8938 12.1826L38.8256 6.20795L39.9247 6.04004L39.5215 8.62589C39.8428 8.34351 40.2892 8.06113 40.8347 8.06113C41.7468 8.06113 42.3576 8.73206 42.1346 10.1615C41.8897 11.7323 40.9079 12.465 39.62 12.465ZM40.4116 8.99638C40.0537 8.99638 39.6947 9.23483 39.3769 9.55284L39.0754 11.4853C39.2869 11.5647 39.4333 11.6 39.7372 11.6C40.4168 11.6 40.8916 11.1942 41.043 10.2233C41.1711 9.4025 40.8946 8.99638 40.4116 8.99638Z" fill="#1C548E"/>
<path fill-rule="evenodd" clip-rule="evenodd" d="M44.6627 12.6411C44.1144 13.6913 43.5718 14.0179 42.7401 14.0179C42.5522 14.0179 42.4478 14.0001 42.3536 13.9737L42.3467 13.1C42.4844 13.1354 42.6321 13.1617 42.8378 13.1617C43.1509 13.1617 43.4232 13.0207 43.6057 12.7117L43.7479 12.4293L42.8381 8.22847L43.9781 8.0874L44.5061 11.1231L45.9358 8.14915H46.9999L44.6627 12.6411Z" fill="#1C548E"/>
</g>
<defs>
<clipPath id="clip0">
<path d="M0 0H56V23.8298H0V0Z" fill="white"/>
</clipPath>
</defs>
</svg>
