<svg fill="none" height="40" viewBox="0 0 123 40" width="123" xmlns="http://www.w3.org/2000/svg"><rect fill="#000" height="40" rx="4" width="122.667" x=".333496"/><path clip-rule="evenodd" d="m25.8801 7.98706h-9.9428c-4.6832 0-6.39433 1.72672-6.39433 6.45254v10.0331c0 4.7258 1.71113 6.4525 6.39433 6.4525h9.9428c4.6832 0 6.4004-1.7267 6.4004-6.4525v-10.0331c-.006-4.72582-1.7172-6.45254-6.4004-6.45254z" fill="#ce0e2d" fill-rule="evenodd"/><g fill="#fff"><path d="m14.041 19.4602h.6004v2.999h-.6004v-1.2178h-1.363v1.2178h-.6004v-2.999h.6004v1.2117h1.363zm3.3983 1.7146c0 .4847-.2402.7452-.6785.7452s-.6784-.2666-.6784-.7695v-1.6964h-.6004v1.7146c0 .8422.4623 1.3269 1.2728 1.3269.8166 0 1.2849-.4908 1.2849-1.3511v-1.6904h-.6004zm6.9707.3453-.6724-2.0599h-.4923l-.6725 2.0599-.6545-2.0599h-.6424l1.0387 2.999h.4984l.6784-1.9691.6785 1.9691h.5043l1.0327-2.999h-.6244zm2.3657-.3514h1.0987v-.5453h-1.0987v-.6119h1.591v-.5453h-2.1854v2.993h2.2455v-.5453h-1.6511zm2.3656 1.2844h.5944v-2.9929h-.5944zm-9.9068-.624-.2702.624h-.6184l1.3089-2.999h.5344l1.3029 2.999h-.6305l-.2642-.624zm.2222-.5392h.9126l-.4563-1.0724z"/><path d="m20.909 15.6368c-2.0894 0-3.7825-1.7146-3.7825-3.817h.5343c0 1.8055 1.459 3.2778 3.2482 3.2778 1.7893 0 3.2483-1.4723 3.2483-3.2778h.5343c0 2.1084-1.6991 3.817-3.7826 3.817z"/><path d="m41.2582 14.9747c-.3472 0-.6727-.0584-.9764-.1751-.3038-.1217-.5666-.2968-.7884-.5255s-.3978-.5109-.528-.8467c-.1254-.3357-.1881-.7225-.1881-1.1604s.0627-.8223.1881-1.1532c.1302-.3357.3062-.6131.528-.832.2218-.2238.4846-.3917.7884-.50361.3037-.11677.6292-.17516.9764-.17516.352 0 .6799.05839.9836.17516.3038.11191.5666.27981.7884.50361s.3954.5036.5208.8393c.1253.3309.188.7153.188 1.1532 0 .433-.0627.8174-.188 1.1531-.1254.3358-.299.618-.5208.8467s-.4846.4038-.7884.5255c-.3037.1167-.6316.1751-.9836.1751zm0-.6203c.2507 0 .4822-.0365.6943-.1095.2122-.0779.3954-.1971.5497-.3577.1591-.1654.2821-.3795.3689-.6422.0916-.2628.1374-.5815.1374-.9561 0-.3747-.0458-.6934-.1374-.9561-.0868-.2628-.2098-.4744-.3689-.635-.1543-.1654-.3375-.2846-.5497-.3576-.2121-.0779-.4436-.1168-.6943-.1168-.2508 0-.4822.0389-.6944.1168-.2121.073-.3978.1922-.5569.3576-.1543.1606-.2772.3722-.3689.635-.0868.2627-.1301.5814-.1301.9561 0 .3746.0433.6933.1301.9561.0917.2627.2146.4768.3689.6422.1591.1606.3448.2798.5569.3577.2122.073.4436.1095.6944.1095z"/><path d="m46.0718 11.6612v3.2405h-.6365v-3.2405h-1.1789v-.5474h3.016v.5474z"/><path d="m48.9762 13.2888h-.3327v1.6129h-.6365v-3.7879h.6365v1.6276h.3616l1.3164-1.6276h.7233l-1.5406 1.8684 1.5695 1.9195h-.7739z"/><path d="m53.6312 14.9747c-.2893 0-.54-.0681-.7522-.2043-.2073-.1363-.3737-.3236-.4991-.562v1.9852h-.6364v-5.0798h.5569l.0651.7372c.1253-.2482.2941-.4452.5063-.5912.2121-.146.4749-.219.7883-.219.217 0 .4244.0414.6221.1241.2025.0779.3785.1995.5279.3649.1543.1606.2749.365.3617.6131.0916.2433.1374.5304.1374.8612 0 .3358-.0458.6277-.1374.8759-.0916.2432-.2146.4476-.3689.613-.1543.1606-.3327.2822-.5352.3649-.2025.0779-.4147.1168-.6365.1168zm-.094-.5766c.3327 0 .6003-.1143.8028-.343.2074-.2335.311-.5839.311-1.051 0-.4573-.1036-.8028-.311-1.0364-.2025-.2384-.4701-.3576-.8028-.3576-.164 0-.3183.0292-.4629.0876-.1398.0584-.2628.146-.3689.2627-.1012.112-.1832.2555-.2459.4307-.0579.1751-.0868.3795-.0868.613 0 .2336.0289.4379.0868.6131.0627.1752.1447.3211.2459.4379.1061.1168.2291.2044.3689.2628.1446.0535.2989.0802.4629.0802z"/><path d="m57.6209 14.9747c-.2556 0-.4943-.0438-.7161-.1313-.2218-.0876-.4147-.2141-.5786-.3796-.1591-.1703-.2845-.3771-.3761-.6203-.0916-.2433-.1374-.5231-.1374-.8394 0-.3114.0458-.5887.1374-.832.0916-.2481.217-.4549.3761-.6204.1639-.1654.3568-.2919.5786-.3795s.4605-.1314.7161-.1314c.2603 0 .5014.0438.7232.1314s.4123.2141.5714.3795c.164.1655.2917.3723.3834.6204.0964.2433.1446.5206.1446.832 0 .3163-.0482.5961-.1446.8394-.0917.2432-.2194.45-.3834.6203-.1591.1655-.3496.292-.5714.3796-.2218.0875-.4629.1313-.7232.1313zm0-.5766c.1687 0 .323-.0267.4629-.0802.1446-.0584.27-.1436.3761-.2555.106-.1168.188-.2627.2459-.4379.0578-.1752.0868-.382.0868-.6204s-.029-.4452-.0868-.6203c-.0579-.1752-.1399-.3187-.2459-.4307-.1061-.1167-.2315-.2019-.3761-.2554-.1399-.0584-.2942-.0876-.4629-.0876-.1688 0-.3231.0292-.4629.0876-.1399.0535-.2628.1387-.3689.2554-.1013.112-.1808.2555-.2387.4307-.0578.1751-.0868.3819-.0868.6203s.029.4452.0868.6204c.0579.1752.1374.3211.2387.4379.1061.1119.229.1971.3689.2555.1398.0535.2941.0802.4629.0802z"/><path d="m61.8756 10.6102c-.1928 0-.3616-.0243-.5062-.073-.1399-.0535-.258-.124-.3545-.2116-.0916-.0925-.1615-.1971-.2097-.3139-.0434-.1216-.0651-.25297-.0651-.39408h.6365c0 .1849.0434.31871.1302.40138.0916.0828.2145.1241.3688.1241s.2749-.0413.3617-.1241c.0868-.08267.1302-.21648.1302-.40138h.6365c0 .27735-.0941.51338-.2821.70798-.1833.1897-.4653.2846-.8463.2846zm-1.0198 3.4157 2.0035-2.9121h.6437v3.7879h-.6365v-2.9048l-1.9962 2.9048h-.651v-3.7879h.6365z"/><path d="m66.0537 11.6612v3.2405h-.6365v-3.2405h-1.1789v-.5474h3.016v.5474z"/><path d="m70.8701 14.5806c-.0531.0389-.1182.0803-.1953.1241-.0772.0438-.1712.0876-.2821.1314-.1109.0389-.2363.0705-.3761.0948-.1398.0292-.2965.0438-.4701.0438-.6317 0-1.1114-.1727-1.4393-.5182-.3279-.3454-.4919-.8296-.4919-1.4524 0-.3065.0434-.5814.1302-.8247.0916-.2433.217-.4476.3761-.6131.1592-.1703.3472-.2992.5642-.3868.217-.0924.4532-.1387.7088-.1387.27 0 .5111.0463.7233.1387.2121.0925.3857.2287.5207.4087.1399.18.2339.4039.2821.6715.053.2627.053.5693 0 .9196h-2.6472c.0241.4087.1447.7152.3617.9196.2169.1995.54.2992.9691.2992.2894 0 .5377-.0413.745-.124.2074-.0827.3809-.1728.5208-.2701zm-1.49-2.9705c-.2748 0-.5111.0852-.7088.2555s-.323.4281-.3761.7736h2.018c.0192-.3503-.0603-.6082-.2387-.7736-.1784-.1703-.4099-.2555-.6944-.2555z"/><path d="m73.364 11.1138h1.4032c.4532 0 .7956.0803 1.027.2409.2315.1557.3472.4014.3472.7371 0 .2238-.0579.4039-.1736.5401-.1109.1314-.27.2263-.4774.2846.5353.0876.8029.3869.8029.8978 0 .1946-.0386.3625-.1157.5036-.0772.1362-.1833.2481-.3183.3357s-.2989.1508-.4918.1898c-.1881.0389-.393.0583-.6148.0583h-1.3887zm.6365.5474v1.0291h.7088c.2411 0 .434-.0438.5786-.1314.1495-.0876.2242-.2141.2242-.3795 0-.1995-.065-.3357-.1952-.4087s-.3159-.1095-.557-.1095zm0 1.54v1.1532h.745c.135 0 .2555-.0073.3616-.0219.1109-.0195.2049-.0511.2821-.0949.082-.0438.1446-.1022.188-.1752s.0651-.163.0651-.27c0-.219-.0747-.3723-.2242-.4598-.1495-.0876-.3737-.1314-.6726-.1314z"/><path d="m42.3649 17.4346h2.3l3.6742 10.466h-1.8082l-.9547-2.7442h-4.3686l-.9547 2.7442h-1.5478zm2.6761 6.2037-1.6491-4.7148-1.6491 4.7148z"/><path d="m53.6514 28.0466c-.5689 0-1.0608-.1265-1.4754-.3795-.4051-.2627-.733-.6131-.9837-1.051v3.8682h-1.678v-10.1595h1.5334l.1157 1.3429c.2507-.4573.5834-.8174.9981-1.0802.4147-.2724.921-.4087 1.5189-.4087.4436 0 .8631.0827 1.2585.2482.405.1557.757.399 1.056.7298.2989.3212.5352.7299.7088 1.2262.1832.4865.2748 1.0607.2748 1.7224 0 .6715-.0916 1.2554-.2748 1.7517-.1736.4865-.4147.8953-.7233 1.2261-.299.3212-.651.5644-1.056.7299-.405.1557-.8293.2335-1.273.2335zm-.405-1.4159c.5979 0 1.0801-.2043 1.4466-.6131.3761-.4184.5641-1.0558.5641-1.9122 0-.8466-.188-1.4791-.5641-1.8976-.3665-.4184-.8439-.6277-1.4321-.6277-.299 0-.5738.0536-.8246.1606-.2507.0973-.4725.253-.6654.4671-.1832.2141-.3279.4817-.4339.8029-.1061.3114-.1592.6763-.1592 1.0947 0 .4282.0531.8029.1592 1.124.106.3114.2507.5741.4339.7882.1833.2044.4002.3601.651.4671.2604.0974.5352.146.8245.146z"/><path d="m62.537 28.0466c-.569 0-1.0608-.1265-1.4755-.3795-.405-.2627-.7329-.6131-.9836-1.051v3.8682h-1.678v-10.1595h1.5333l.1157 1.3429c.2508-.4573.5835-.8174.9981-1.0802.4147-.2724.921-.4087 1.5189-.4087.4436 0 .8631.0827 1.2585.2482.4051.1557.757.399 1.056.7298.299.3212.5352.7299.7088 1.2262.1832.4865.2749 1.0607.2749 1.7224 0 .6715-.0917 1.2554-.2749 1.7517-.1736.4865-.4147.8953-.7233 1.2261-.2989.3212-.6509.5644-1.0559.7299-.4051.1557-.8294.2335-1.273.2335zm-.405-1.4159c.5979 0 1.0801-.2043 1.4465-.6131.3761-.4184.5642-1.0558.5642-1.9122 0-.8466-.1881-1.4791-.5642-1.8976-.3664-.4184-.8438-.6277-1.4321-.6277-.2989 0-.5738.0536-.8245.1606-.2507.0973-.4726.253-.6654.4671-.1833.2141-.3279.4817-.434.8029-.1061.3114-.1591.6763-.1591 1.0947 0 .4282.053.8029.1591 1.124.1061.3114.2507.5741.434.7882.1832.2044.4002.3601.6509.4671.2604.0974.5352.146.8246.146z"/><path d="m76.4565 23.7551c0 .6131-.0916 1.1824-.2748 1.7078-.1832.5158-.4629.9683-.839 1.3576-.3761.3795-.8487.6812-1.4176.905-.5594.2141-1.2199.3211-1.9818.3211-.7522 0-1.4369-.1265-2.0541-.3795s-1.1476-.6131-1.5912-1.0802-.786-1.0315-1.0271-1.6932c-.241-.6618-.3616-1.4013-.3616-2.2188 0-.8174.1157-1.557.3472-2.2187.2411-.6618.5882-1.2262 1.0415-1.6933.4629-.4671 1.0319-.8271 1.7069-1.0802.6847-.253 1.4707-.3795 2.3579-.3795.4436 0 .8342.0292 1.1717.0876.3472.0487.6558.1168.9258.2044.27.0778.5063.1703.7088.2773.2025.1071.3858.2092.5497.3065v1.5765c-.4436-.2627-.9306-.4817-1.461-.6568-.5208-.1849-1.1428-.2774-1.8661-.2774-1.2633 0-2.1843.3406-2.7629 1.0218-.5786.6715-.8679 1.6154-.8679 2.8318 0 1.2262.2748 2.175.8245 2.8464.5594.6715 1.3501 1.0072 2.3724 1.0072.4821 0 .8968-.0632 1.244-.1897.3472-.1363.6268-.3163.839-.5401.2218-.2336.3809-.5061.4774-.8175.106-.3211.1591-.6714.1591-1.0509v-.0876h-3.0378v-1.5181h4.817z"/><path d="m82.3467 26.5723c-.0771.1752-.1832.3503-.3182.5255-.1254.1752-.2845.3357-.4774.4817-.1832.1363-.405.2482-.6654.3357-.2604.0876-.5642.1314-.9113.1314-.3279 0-.6317-.0486-.9114-.146-.2796-.0875-.5255-.2238-.7377-.4087-.2025-.1849-.3665-.4135-.4918-.686-.1157-.2822-.1736-.6034-.1736-.9634 0-.8272.3038-1.4451.9113-1.8538.6076-.4185 1.4659-.6277 2.5749-.6277h1.1427v-.4671c0-.4963-.1253-.8369-.3761-1.0218-.2507-.1946-.6654-.292-1.244-.292-.4918 0-.9547.073-1.3887.219-.4243.1362-.8004.2968-1.1283.4817v-1.4159c.299-.1654.6944-.3211 1.1862-.4671s1.027-.219 1.6057-.219c.9643 0 1.7069.2044 2.2276.6131.5304.399.7956 1.0413.7956 1.9268v3.9558.3065c.0097.1071.0145.219.0145.3358.0097.1167.0193.2287.0289.3357.0097.0973.0193.18.029.2481h-1.5478c-.029-.1362-.0579-.326-.0868-.5692-.0193-.2433-.0338-.4623-.0434-.6569zm-1.9094.1606c.3568 0 .6509-.073.8824-.219.241-.1557.4339-.3308.5786-.5255.1446-.2043.2459-.4038.3038-.5984.0578-.1947.0867-.3309.0867-.4088v-.5108h-1.0415c-.6654 0-1.1524.107-1.461.3211-.3086.2043-.4629.4963-.4629.8758 0 .3309.0916.5936.2749.7882.1928.1849.4725.2774.839.2774z"/><path d="m87.455 17.4346v10.466h-1.678v-10.466z"/><path d="m91.0148 17.4346v10.466h-1.678v-10.466z"/><path d="m99.1747 27.346c-.1061.0681-.2362.1459-.3905.2335-.1543.0779-.3376.1509-.5497.219-.2122.0681-.4581.1265-.7378.1751-.2796.0487-.5979.073-.9547.073-1.379 0-2.4109-.3454-3.0956-1.0364-.6751-.6909-1.0126-1.6592-1.0126-2.9048 0-.613.0916-1.1629.2748-1.6494.1833-.4866.4388-.8953.7667-1.2262.3279-.3406.7185-.5985 1.1717-.7736.4533-.1849.9499-.2774 1.49-.2774.5593 0 1.0608.0925 1.5044.2774.4532.1849.8245.4622 1.1138.832s.487.8272.5931 1.3721c.1157.545.1206 1.1824.0145 1.9122h-5.1931c.0675.691.2941 1.2116.6798 1.5619.3858.3406.9885.5109 1.8082.5109.5979 0 1.0946-.073 1.49-.2189.405-.1558.7474-.3163 1.027-.4818zm-3.0377-5.8242c-.4919 0-.9065.1508-1.2441.4525-.3375.3016-.5593.7493-.6654 1.3429h3.5296c.0193-.6131-.1157-1.0656-.405-1.3575-.2893-.292-.6944-.4379-1.2151-.4379z"/><path d="m105.03 21.9597c-.549-.0098-1.046.0778-1.49.2627-.443.1849-.781.4768-1.012.8758v4.8024h-1.678v-7.5758h1.533l.116 1.5765h.029c.241-.4671.569-.8564.984-1.1678.424-.3114.93-.4963 1.518-.5547z"/><path d="m110.621 27.8131c-.163.4573-.342.8612-.535 1.2115-.183.3503-.4.6423-.651.8758-.241.2433-.525.4234-.853.5401-.318.1265-.695.1898-1.128.1898-.473 0-.878-.0779-1.216-.2336v-1.5181c.135.1071.304.1898.507.2482.202.0584.424.0876.665.0876.328 0 .598-.073.81-.219.212-.1362.405-.3454.579-.6276l-3.023-8.043h1.808l2.097 5.8826 2.083-5.8826h1.562z"/></g></svg>