<svg width="137" height="44" fill="none" xmlns="http://www.w3.org/2000/svg"><g><path d="M8.711 44.04c-.352 0-.696-.005-1.045-.013a14.705 14.705 0 0 1-2.16-.188 6.812 6.812 0 0 1-1.915-.631 6.247 6.247 0 0 1-1.614-1.172 6.132 6.132 0 0 1-1.18-1.61 6.581 6.581 0 0 1-.627-1.909 14.267 14.267 0 0 1-.192-2.16c-.007-.244-.017-1.053-.017-1.053V8.684s.01-.797.017-1.031c.009-.723.073-1.444.191-2.158A6.62 6.62 0 0 1 .797 3.58 6.43 6.43 0 0 1 3.591.79 6.742 6.742 0 0 1 5.5.165c.717-.117 1.442-.18 2.168-.19l1.043-.013h118.761l1.055.014c.719.009 1.437.071 2.147.188a6.864 6.864 0 0 1 1.931.631 6.449 6.449 0 0 1 2.791 2.789c.301.598.51 1.239.619 1.9.12.719.187 1.446.2 2.175.004.326.004.677.004 1.025.009.433.009.844.009 1.259v24.117c0 .42 0 .828-.009 1.24 0 .374 0 .718-.005 1.07-.013.717-.079 1.43-.197 2.137a6.597 6.597 0 0 1-.624 1.924 6.328 6.328 0 0 1-1.174 1.597 6.253 6.253 0 0 1-1.617 1.178 6.79 6.79 0 0 1-1.928.634c-.714.116-1.436.18-2.16.188-.338.008-.693.012-1.037.012l-1.252.003-117.515-.003z" fill="#000"/><path d="M27.838 21.872a5.938 5.938 0 0 1 2.832-4.976 6.082 6.082 0 0 0-4.796-2.585c-2.018-.211-3.974 1.204-5.003 1.204-1.048 0-2.631-1.183-4.336-1.148a6.4 6.4 0 0 0-3.12.928 6.377 6.377 0 0 0-2.255 2.341c-2.324 4.012-.59 9.91 1.636 13.153 1.113 1.588 2.415 3.363 4.119 3.3 1.666-.07 2.289-1.06 4.301-1.06 1.993 0 2.578 1.06 4.315 1.02 1.79-.03 2.916-1.596 3.99-3.199a13.124 13.124 0 0 0 1.825-3.706 5.743 5.743 0 0 1-2.55-2.11 5.72 5.72 0 0 1-.958-3.162zM24.556 12.178a5.828 5.828 0 0 0 1.34-4.183 5.963 5.963 0 0 0-3.855 1.989 5.551 5.551 0 0 0-1.375 4.028 4.936 4.936 0 0 0 3.89-1.834zM47.836 30.227h-5.47l-1.313 3.868h-2.317l5.18-14.31h2.408l5.181 14.31H49.15l-1.313-3.868zm-4.903-1.785h4.336l-2.138-6.277h-.06l-2.138 6.277zM62.695 28.88c0 3.241-1.74 5.324-4.366 5.324a3.555 3.555 0 0 1-3.292-1.825h-.05v5.168h-2.148V23.662h2.08v1.735h.039a3.707 3.707 0 0 1 3.331-1.844c2.655 0 4.406 2.093 4.406 5.326zm-2.208 0c0-2.113-1.094-3.502-2.765-3.502-1.64 0-2.744 1.418-2.744 3.501 0 2.102 1.104 3.51 2.744 3.51 1.67 0 2.765-1.378 2.765-3.51zM74.21 28.88c0 3.241-1.74 5.324-4.366 5.324a3.555 3.555 0 0 1-3.292-1.825h-.05v5.168h-2.147V23.662h2.078v1.735h.04a3.707 3.707 0 0 1 3.331-1.844c2.656 0 4.406 2.093 4.406 5.326zm-2.207 0c0-2.113-1.095-3.502-2.765-3.502-1.641 0-2.745 1.418-2.745 3.501 0 2.102 1.104 3.51 2.745 3.51 1.67 0 2.765-1.378 2.765-3.51zM81.82 30.108c.16 1.42 1.542 2.35 3.431 2.35 1.81 0 3.113-.93 3.113-2.21 0-1.111-.786-1.776-2.645-2.232l-1.86-.447C81.224 26.935 80 25.706 80 23.711c0-2.469 2.158-4.165 5.22-4.165 3.034 0 5.113 1.696 5.183 4.165h-2.168c-.13-1.428-1.314-2.29-3.044-2.29s-2.913.872-2.913 2.142c0 1.012.756 1.607 2.605 2.063l1.581.387c2.945.694 4.167 1.873 4.167 3.967 0 2.677-2.138 4.354-5.539 4.354-3.182 0-5.331-1.638-5.47-4.226h2.198zM95.268 21.193v2.469h1.99v1.696h-1.99v5.752c0 .893.398 1.31 1.273 1.31.236-.005.472-.021.706-.05v1.686a5.912 5.912 0 0 1-1.192.099c-2.119 0-2.945-.794-2.945-2.817v-5.98H91.59v-1.696h1.521v-2.47h2.158zM98.409 28.88c0-3.284 1.938-5.346 4.962-5.346 3.033 0 4.963 2.063 4.963 5.345 0 3.292-1.92 5.346-4.963 5.346s-4.962-2.054-4.962-5.346zm7.737 0c0-2.253-1.035-3.582-2.775-3.582s-2.775 1.34-2.775 3.581c0 2.261 1.035 3.58 2.775 3.58s2.775-1.319 2.775-3.58zM110.105 23.662h2.048v1.776h.049a2.492 2.492 0 0 1 2.517-1.885c.248-.001.494.026.736.08v2.003a3.011 3.011 0 0 0-.965-.13 2.171 2.171 0 0 0-1.673.687 2.155 2.155 0 0 0-.565 1.714v6.188h-2.148l.001-10.433zM125.357 31.03c-.289 1.895-2.139 3.195-4.505 3.195-3.044 0-4.933-2.034-4.933-5.296 0-3.273 1.899-5.395 4.842-5.395 2.895 0 4.715 1.983 4.715 5.146v.734h-7.389v.13a2.717 2.717 0 0 0 2.814 2.954 2.366 2.366 0 0 0 2.417-1.467h2.039zm-7.26-3.113h5.231a2.507 2.507 0 0 0-1.555-2.46 2.521 2.521 0 0 0-1.012-.188 2.657 2.657 0 0 0-1.885.77 2.642 2.642 0 0 0-.779 1.878zM41.408 11.92h.922a1.159 1.159 0 0 0 1.3-1.096c0-.634-.479-1.043-1.29-1.043a1.233 1.233 0 0 0-1.242.614c-.08.143-.131.3-.15.463h-1.012a2.15 2.15 0 0 1 .78-1.534 2.165 2.165 0 0 1 1.657-.477c1.357 0 2.313.758 2.313 1.849a1.595 1.595 0 0 1-1.253 1.572v.081c.425.02.824.204 1.111.516.288.312.44.724.423 1.147a2.294 2.294 0 0 1-1.667 1.976 2.31 2.31 0 0 1-.908.068 2.3 2.3 0 0 1-2.319-1.164 2.28 2.28 0 0 1-.271-.87h1.028c.062.657.668 1.082 1.562 1.082.893 0 1.477-.477 1.477-1.149 0-.681-.55-1.1-1.51-1.1h-.951v-.934zM46.135 14.422c0-.934.698-1.472 1.935-1.549l1.41-.08v-.449c0-.548-.362-.857-1.066-.857-.573 0-.969.21-1.084.577h-.994c.105-.892.947-1.463 2.127-1.463 1.304 0 2.04.647 2.04 1.743v3.546h-.99v-.73h-.08a1.75 1.75 0 0 1-1.564.815 1.576 1.576 0 0 1-1.597-.917c-.09-.2-.136-.417-.137-.636zm3.345-.443v-.434l-1.271.081c-.717.048-1.042.291-1.042.748 0 .467.407.74.965.74a1.23 1.23 0 0 0 1.218-.665 1.22 1.22 0 0 0 .13-.47zM53.23 11.563v4.327h-1.028V10.7h3.426v.863H53.23zM61.852 13.293c0 1.649-.836 2.682-2.15 2.682a1.7 1.7 0 0 1-1.601-.871h-.081v2.51h-1.027v-6.913h.988v.857h.077a1.805 1.805 0 0 1 1.634-.943c1.324 0 2.16 1.029 2.16 2.678zm-1.056 0c0-1.096-.52-1.758-1.39-1.758-.865 0-1.405.676-1.405 1.762 0 1.082.54 1.759 1.4 1.759.875 0 1.395-.662 1.395-1.763zM63.22 17.748v-.881c.111.014.223.02.335.019a.892.892 0 0 0 .941-.724l.077-.253L62.69 10.7h1.118l1.304 4.121h.082l1.3-4.121h1.089l-1.94 5.403c-.445 1.263-.937 1.668-1.998 1.668-.085 0-.33-.01-.425-.024zM68.383 14.417h1.022c.1.458.53.696 1.132.696.684 0 1.104-.3 1.104-.767 0-.5-.377-.74-1.104-.74h-.779v-.795h.766c.62 0 .936-.238.936-.671 0-.382-.305-.672-.936-.672-.575 0-.995.243-1.061.652h-.99a1.828 1.828 0 0 1 2.05-1.52c1.237 0 1.945.558 1.945 1.435a1.064 1.064 0 0 1-.822 1.062v.081a1.168 1.168 0 0 1 1.019 1.168c0 .986-.842 1.639-2.128 1.639-1.136 0-2.06-.52-2.154-1.568zM74.144 15.89V10.7h1.017v3.57h.082l2.398-3.57h1.018v5.19H77.64v-3.588h-.077l-2.402 3.588h-1.018zM84.266 11.563h-1.638v4.327H81.6v-4.327h-1.64V10.7h4.306v.862zM89.799 14.489a2.11 2.11 0 0 1-2.256 1.5 2.367 2.367 0 0 1-2.323-1.667 2.35 2.35 0 0 1-.081-1.01 2.386 2.386 0 0 1 .58-1.902 2.4 2.4 0 0 1 1.82-.81c1.447 0 2.322.987 2.322 2.616v.358h-3.675v.057a1.366 1.366 0 0 0 .828 1.376c.176.075.366.113.558.11a1.25 1.25 0 0 0 1.237-.628h.99zm-3.613-1.673h2.627a1.25 1.25 0 0 0-1.28-1.344 1.333 1.333 0 0 0-1.25.827c-.066.164-.1.34-.097.517zM94.152 10.7H96.5c1.017 0 1.615.515 1.615 1.32a1.113 1.113 0 0 1-.88 1.096v.081a1.189 1.189 0 0 1 1.113 1.197c0 .905-.683 1.496-1.825 1.496h-2.37V10.7zm1.018.787v1.343h1.018c.62 0 .918-.238.918-.677 0-.404-.259-.666-.804-.666H95.17zm0 2.096v1.52h1.218c.607 0 .932-.267.932-.757 0-.52-.368-.763-1.06-.763h-1.09z" fill="#fff"/></g></svg>
