<svg width="149" height="44" fill="none" xmlns="http://www.w3.org/2000/svg"><g><path d="M143 0H5.5A5.5 5.5 0 0 0 0 5.5v33A5.5 5.5 0 0 0 5.5 44H143a5.5 5.5 0 0 0 5.5-5.5v-33A5.5 5.5 0 0 0 143 0z" fill="#000"/><path d="M74.954 23.925A4.685 4.685 0 1 0 79.65 28.6a4.607 4.607 0 0 0-4.697-4.675zm0 7.513a2.838 2.838 0 1 1 2.64-2.838 2.707 2.707 0 0 1-2.64 2.838zm-10.252-7.513a4.685 4.685 0 1 0 4.697 4.675 4.607 4.607 0 0 0-4.697-4.675zm0 7.513a2.838 2.838 0 1 1 2.64-2.838 2.707 2.707 0 0 1-2.64 2.838zm-12.188-6.072v1.98h4.752a4.147 4.147 0 0 1-1.1 2.497 4.861 4.861 0 0 1-3.674 1.452 5.28 5.28 0 0 1 0-10.56 5.104 5.104 0 0 1 3.608 1.419l1.397-1.397a6.93 6.93 0 0 0-4.983-2.002 7.272 7.272 0 1 0 0 14.531 6.677 6.677 0 0 0 5.07-2.035 6.6 6.6 0 0 0 1.717-4.653 6.892 6.892 0 0 0-.1-1.232h-6.687zm49.841 1.54a4.402 4.402 0 0 0-4.004-2.981 4.4 4.4 0 0 0-4.4 4.675 4.653 4.653 0 0 0 8.536 2.607l-1.595-1.1a2.65 2.65 0 0 1-2.3 1.287 2.364 2.364 0 0 1-2.265-1.419l6.259-2.585-.231-.484zm-6.38 1.562a2.574 2.574 0 0 1 2.453-2.739 1.804 1.804 0 0 1 1.727 1.001l-4.18 1.738zM90.893 33h2.057V19.25h-2.057V33zm-3.366-8.03h-.077a3.234 3.234 0 0 0-2.464-1.045 4.686 4.686 0 0 0 0 9.361 3.168 3.168 0 0 0 2.464-1.1h.077v.671c0 1.793-.957 2.75-2.497 2.75a2.596 2.596 0 0 1-2.365-1.661l-1.782.737a4.4 4.4 0 0 0 4.147 2.772c2.409 0 4.4-1.419 4.4-4.873V24.2h-1.903v.77zm-2.365 6.468a2.837 2.837 0 0 1 0-5.665A2.629 2.629 0 0 1 87.67 28.6a2.618 2.618 0 0 1-2.508 2.838zM111.99 19.25h-4.928V33h2.057v-5.214h2.871a4.278 4.278 0 1 0 0-8.536zm0 6.6h-2.871v-4.686h2.915a2.352 2.352 0 0 1 1.664 4.018c-.441.442-1.04.69-1.664.69l-.044-.022zm12.694-1.969a3.841 3.841 0 0 0-3.663 2.101l1.815.759a1.954 1.954 0 0 1 1.881-1.001 1.978 1.978 0 0 1 2.2 1.771v.132a4.6 4.6 0 0 0-2.145-.528c-1.958 0-3.96 1.1-3.96 3.102a3.17 3.17 0 0 0 1.07 2.237 3.175 3.175 0 0 0 2.351.788 2.912 2.912 0 0 0 2.618-1.342h.066V33h1.98v-5.291c0-2.409-1.826-3.806-4.169-3.806l-.044-.022zm-.253 7.535c-.671 0-1.606-.341-1.606-1.166 0-1.1 1.166-1.474 2.2-1.474a3.654 3.654 0 0 1 1.87.462 2.486 2.486 0 0 1-2.42 2.2l-.044-.022zm11.682-7.216l-2.354 5.962h-.066l-2.442-5.962h-2.2l3.663 8.338-2.09 4.631h2.2l5.577-12.969h-2.288zm-18.48 8.8h2.046V19.25h-2.046V33z" fill="#fff"/><path d="M11.484 8.294A2.2 2.2 0 0 0 11 9.834v24.332a2.134 2.134 0 0 0 .517 1.54l.077.088L25.19 22.165v-.33L11.561 8.217l-.077.077z" fill="url(#paint0_linear)"/><path d="M29.7 26.708l-4.51-4.543v-.33l4.51-4.543.099.066 5.4 3.058c1.54.869 1.54 2.299 0 3.179l-5.378 3.058-.121.055z" fill="url(#paint1_linear)"/><path d="M29.832 26.642L25.19 22 11.484 35.706a1.782 1.782 0 0 0 2.277.077l16.07-9.141" fill="url(#paint2_linear)"/><path d="M29.832 17.358L13.76 8.228a1.771 1.771 0 0 0-2.277.066L25.19 22l4.642-4.642z" fill="url(#paint3_linear)"/><path opacity=".2" d="M29.7 26.543l-15.94 9.075a1.826 1.826 0 0 1-2.2 0l-.076.077.077.088a1.826 1.826 0 0 0 2.2 0l16.07-9.141-.131-.099z" fill="#000"/><path opacity=".12" d="M11.484 35.552A2.2 2.2 0 0 1 11 34.001v.165a2.133 2.133 0 0 0 .517 1.54l.077-.077-.11-.077zM35.2 23.43l-5.5 3.113.1.099 5.4-3.058A1.925 1.925 0 0 0 36.366 22a2.046 2.046 0 0 1-1.166 1.43z" fill="#000"/><path opacity=".25" d="M13.761 8.382L35.2 20.57A2.047 2.047 0 0 1 36.366 22a1.925 1.925 0 0 0-1.166-1.584L13.761 8.228C12.232 7.348 11 8.074 11 9.834V10c0-1.76 1.232-2.486 2.761-1.617z" fill="#fff"/><path d="M46.32 15.697h-.802v-2.2h.682A3.124 3.124 0 0 0 47.003 11V7.7h4.4v5.786h.737v2.2h-.814V14.3H46.32v1.397zM47.85 11a4.4 4.4 0 0 1-.627 2.519h3.3V8.514H47.85V11zM58.751 13.442a3.422 3.422 0 0 1-4.84 0A3.387 3.387 0 0 1 52.943 11a3.386 3.386 0 0 1 .957-2.442 3.42 3.42 0 0 1 4.84 0A3.388 3.388 0 0 1 59.73 11a3.297 3.297 0 0 1-.979 2.442zm-4.213-.55a2.442 2.442 0 0 0 1.793.748 2.409 2.409 0 0 0 1.793-.748A2.552 2.552 0 0 0 58.861 11a2.55 2.55 0 0 0-.737-1.892 2.41 2.41 0 0 0-1.793-.748 2.442 2.442 0 0 0-1.793.748A2.585 2.585 0 0 0 53.812 11a2.585 2.585 0 0 0 .726 1.892zM63.998 14.443A3.364 3.364 0 0 1 60.566 11 3.299 3.299 0 0 1 61.6 8.536a3.3 3.3 0 0 1 2.442-.979 3.025 3.025 0 0 1 2.42 1.1l-.583.572a2.2 2.2 0 0 0-1.837-.847 2.475 2.475 0 0 0-1.826.737 2.542 2.542 0 0 0-.78 1.881 2.542 2.542 0 0 0 1.573 2.46c.314.128.65.189.99.18A2.595 2.595 0 0 0 66 12.683l.594.583a3.299 3.299 0 0 1-1.1.858c-.468.219-.98.328-1.496.319zM70.049 14.3H69.2V8.514h-1.847V7.7h4.531v.814h-1.837V14.3zM77.715 7.7l-2.497 5.566a1.596 1.596 0 0 1-2.2 1.034l.22-.781a.947.947 0 0 0 .44.121.792.792 0 0 0 .462-.121c.134-.111.236-.255.297-.418l.242-.528L72.457 7.7h1.001l1.628 3.784L76.714 7.7h1.001zM78.672 14.3V7.7h4.774v6.6h-.847V8.514h-3.08V14.3h-.847zM84.953 14.3V7.7h.847v2.827h3.3V7.7h.858v6.6H89.1v-2.981h-3.3V14.3h-.847zM96.866 13.442a3.42 3.42 0 0 1-5.583-1.12A3.3 3.3 0 0 1 91.047 11a3.3 3.3 0 0 1 .98-2.442 3.41 3.41 0 0 1 4.828 0 3.3 3.3 0 0 1 .98 2.442 3.3 3.3 0 0 1-.969 2.442zm-4.213-.55a2.407 2.407 0 0 0 1.793.748 2.44 2.44 0 0 0 1.793-.748A2.586 2.586 0 0 0 96.965 11a2.585 2.585 0 0 0-.726-1.892 2.442 2.442 0 0 0-1.793-.748 2.41 2.41 0 0 0-1.793.748A2.552 2.552 0 0 0 91.916 11a2.55 2.55 0 0 0 .737 1.892zM101.299 14.3V7.7h2.387a1.98 1.98 0 0 1 1.342.506 1.66 1.66 0 0 1 .572 1.287c.002.296-.082.587-.242.836a1.556 1.556 0 0 1-.649.54c.316.105.592.304.792.571.21.266.322.596.319.935a1.732 1.732 0 0 1-.594 1.342 2.014 2.014 0 0 1-1.408.54l-2.519.043zm.847-3.773h1.54a.955.955 0 0 0 .77-.319.994.994 0 0 0 .297-.693c.01-.262-.08-.518-.253-.715a.944.944 0 0 0-.737-.308h-1.617v2.035zm0 2.96h1.705a1.017 1.017 0 0 0 .803-.342 1.1 1.1 0 0 0 .297-.748 1.103 1.103 0 0 0-.685-.995 1.096 1.096 0 0 0-.448-.083h-1.672v2.167z" fill="#fff" stroke="#fff" stroke-width=".2" stroke-miterlimit="10"/></g><defs><linearGradient id="paint0_linear" x1="23.98" y1="9.581" x2="5.522" y2="28.039" gradientUnits="userSpaceOnUse"><stop stop-color="#00A0FF"/><stop offset=".01" stop-color="#00A1FF"/><stop offset=".26" stop-color="#00BEFF"/><stop offset=".51" stop-color="#00D2FF"/><stop offset=".76" stop-color="#00DFFF"/><stop offset="1" stop-color="#00E3FF"/></linearGradient><linearGradient id="paint1_linear" x1="37.213" y1="22" x2="10.604" y2="22" gradientUnits="userSpaceOnUse"><stop stop-color="#FFE000"/><stop offset=".41" stop-color="#FFBD00"/><stop offset=".78" stop-color="orange"/><stop offset="1" stop-color="#FF9C00"/></linearGradient><linearGradient id="paint2_linear" x1="27.313" y1="24.53" x2="2.277" y2="49.555" gradientUnits="userSpaceOnUse"><stop stop-color="#FF3A44"/><stop offset="1" stop-color="#C31162"/></linearGradient><linearGradient id="paint3_linear" x1="8.03" y1=".198" x2="19.206" y2="11.374" gradientUnits="userSpaceOnUse"><stop stop-color="#32A071"/><stop offset=".07" stop-color="#2DA771"/><stop offset=".48" stop-color="#15CF74"/><stop offset=".8" stop-color="#06E775"/><stop offset="1" stop-color="#00F076"/></linearGradient></defs></svg>
